HIERARCHY
ROOT Hips
{
	OFFSET 0.000000 0.000000 0.000000
	CHANNELS 6 Xposition Yposition Zposition Zrotation Yrotation Xrotation 
	JOINT LHipJoint
	{
		OFFSET 0.000000 0.000000 0.000000
		CHANNELS 3 Zrotation Yrotation Xrotation
		JOINT LeftUpLeg
		{
			OFFSET 1.363060 -1.794630 0.839290
			CHANNELS 3 Zrotation Yrotation Xrotation
			JOINT LeftLeg
			{
				OFFSET 2.448110 -6.726130 0.000000
				CHANNELS 3 Zrotation Yrotation Xrotation
				JOINT LeftFoot
				{
					OFFSET 2.562200 -7.039590 0.000000
					CHANNELS 3 Zrotation Yrotation Xrotation
					JOINT LeftToeBase
					{
						OFFSET 0.157640 -0.433110 2.322550
						CHANNELS 3 Zrotation Yrotation Xrotation
						End Site
						{
							OFFSET 0.000000 0.000000 0.000000
						}
					}
				}
			}
		}
	}
	JOINT RHipJoint
	{
		OFFSET 0.000000 0.000000 0.000000
		CHANNELS 3 Zrotation Yrotation Xrotation
		JOINT RightUpLeg
		{
			OFFSET -1.305520 -1.794630 0.839290
			CHANNELS 3 Zrotation Yrotation Xrotation
			JOINT RightLeg
			{
				OFFSET -2.542530 -6.985550 0.000000
				CHANNELS 3 Zrotation Yrotation Xrotation
				JOINT RightFoot
				{
					OFFSET -2.568260 -7.056230 0.000000
					CHANNELS 3 Zrotation Yrotation Xrotation
					JOINT RightToeBase
					{
						OFFSET -0.164730 -0.452590 2.363150
						CHANNELS 3 Zrotation Yrotation Xrotation
						End Site
						{
							OFFSET 0.000000 0.000000 0.000000
						}
					}
				}
			}
		}
	}
	JOINT LowerBack
	{
		OFFSET 0.000000 0.000000 0.000000
		CHANNELS 3 Zrotation Yrotation Xrotation
		JOINT Spine
		{
			OFFSET 0.028270 2.035590 -0.193380
			CHANNELS 3 Zrotation Yrotation Xrotation
			JOINT Spine1
			{
				OFFSET 0.056720 2.048850 -0.042750
				CHANNELS 3 Zrotation Yrotation Xrotation
				JOINT Neck
				{
					OFFSET 0.000000 0.000000 0.000000
					CHANNELS 3 Zrotation Yrotation Xrotation
					JOINT Neck1
					{
						OFFSET -0.054170 1.746240 0.172020
						CHANNELS 3 Zrotation Yrotation Xrotation
						JOINT Head
						{
							OFFSET 0.104070 1.761360 -0.123970
							CHANNELS 3 Zrotation Yrotation Xrotation
							End Site
							{
								OFFSET 0.000000 0.000000 0.000000
							}
						}
					}
				}
				JOINT LeftShoulder
				{
					OFFSET 0.000000 0.000000 0.000000
					CHANNELS 3 Zrotation Yrotation Xrotation
					JOINT LeftArm
					{
						OFFSET 3.362410 1.200890 -0.311210
						CHANNELS 3 Zrotation Yrotation Xrotation
						JOINT LeftForeArm
						{
							OFFSET 4.983000 -0.000000 -0.000000
							CHANNELS 3 Zrotation Yrotation Xrotation
							JOINT LeftHand
							{
								OFFSET 3.483560 -0.000000 -0.000000
								CHANNELS 3 Zrotation Yrotation Xrotation
								JOINT LeftFingerBase
								{
									OFFSET 0.000000 0.000000 0.000000
									CHANNELS 3 Zrotation Yrotation Xrotation
									JOINT LeftHandIndex1
									{
										OFFSET 0.715260 -0.000000 -0.000000
										CHANNELS 3 Zrotation Yrotation Xrotation
										End Site
										{
											OFFSET 0.000000 0.000000 0.000000
										}
									}
								}
								JOINT LThumb
								{
									OFFSET 0.000000 0.000000 0.000000
									CHANNELS 3 Zrotation Yrotation Xrotation
									End Site
									{
										OFFSET 0.000000 0.000000 0.000000
									}
								}
							}
						}
					}
				}
				JOINT RightShoulder
				{
					OFFSET 0.000000 0.000000 0.000000
					CHANNELS 3 Zrotation Yrotation Xrotation
					JOINT RightArm
					{
						OFFSET -3.136600 1.374050 -0.404650
						CHANNELS 3 Zrotation Yrotation Xrotation
						JOINT RightForeArm
						{
							OFFSET -5.241900 -0.000000 -0.000000
							CHANNELS 3 Zrotation Yrotation Xrotation
							JOINT RightHand
							{
								OFFSET -3.444170 -0.000000 -0.000000
								CHANNELS 3 Zrotation Yrotation Xrotation
								JOINT RightFingerBase
								{
									OFFSET 0.000000 0.000000 0.000000
									CHANNELS 3 Zrotation Yrotation Xrotation
									JOINT RightHandIndex1
									{
										OFFSET -0.622530 -0.000000 -0.000000
										CHANNELS 3 Zrotation Yrotation Xrotation
										End Site
										{
											OFFSET 0.000000 0.000000 0.000000
										}
									}
								}
								JOINT RThumb
								{
									OFFSET 0.000000 0.000000 0.000000
									CHANNELS 3 Zrotation Yrotation Xrotation
									End Site
									{
										OFFSET 0.000000 0.000000 0.000000
									}
								}
							}
						}
					}
				}
			}
		}
	}
}
MOTION
Frames: 4
Frame Time: 0.008333
9.215600 17.906284 -13.088683 1.959579 -6.656825 4.998321 -5.568636 2.176741 4.105967 -7.903207 -8.338141 -1.193970 -0.896474 0.918465 2.570764 -2.639547 13.806784 -3.725787 0.198300 -2.867300 -7.909600 1.919539 -1.984272 1.481926 15.690037 14.419212 -0.798655 -0.773032 -4.043219 12.777056 1.476247 -13.913376 -11.344848 -0.374800 -3.932300 10.886200 0.351799 -1.287527 -6.420209 2.568205 -1.881080 -0.547308 -2.567652 -1.288826 0.601380 -13.038989 -13.202466 -5.972450 5.911774 -17.829404 15.524102 1.983500 -8.829300 8.097400 -3.977276 -2.275864 -0.041576 -89.475880 2.138793 -2.716887 19.504480 -23.087242 -3.848846 -1.015921 -1.486082 -2.998425 28.002966 15.587633 9.264300 -7.125000 0.000000 0.000000 1.203800 49.303600 0.127800 1.647248 1.722158 0.099294 87.804559 -9.322229 0.974852 -20.424215 28.976143 -5.285554 0.308700 -0.592834 5.511524 -15.095622 30.271067 -8.058400 7.125000 0.000000 0.000000 9.061500 1.401000 9.397500 
9.235632 17.903561 -13.071082 2.432940 -6.600551 4.817078 -5.571974 2.211515 4.147114 -8.487092 -8.198915 -0.194485 -0.917304 0.370338 1.065167 -2.722373 14.307731 -3.318559 0.232200 -3.101300 -8.561000 1.906010 -1.979819 1.481329 15.103984 14.106190 -0.919281 -0.797169 -4.197394 13.135357 1.412463 -13.627893 -11.563226 -0.376500 -3.941000 10.910800 -0.059999 -1.347285 -6.177072 2.473936 -1.936930 -0.648636 -2.400458 -1.318256 0.384749 -12.947755 -13.076948 -6.045305 5.586197 -17.629322 15.751857 1.883800 -8.751400 8.130200 -3.987641 -2.241367 -0.049914 -89.624575 2.621818 -2.766959 19.346342 -22.873555 -3.782544 -1.035371 -1.365586 -3.378644 28.617708 13.375849 8.252800 -7.125000 0.000000 0.000000 2.103500 46.788200 0.092900 1.648064 1.683448 0.096188 87.711605 -9.632532 1.296132 -20.754512 29.385529 -5.459733 0.322148 -0.573648 5.143350 -15.435254 29.795194 -8.128300 7.125000 0.000000 0.000000 8.813500 0.964500 9.067900 
9.250705 17.903658 -13.058246 2.736712 -6.706809 4.737395 -5.597443 2.199360 4.141670 -8.891726 -8.079495 -0.085022 -0.915480 0.357160 1.070770 -2.695918 14.197012 -3.371658 0.214300 -2.980500 -8.224500 1.900908 -1.972105 1.482863 14.710604 14.040253 -0.925419 -0.801708 -4.244511 13.221318 1.405083 -13.583572 -11.474509 -0.339800 -3.745700 10.362300 -0.242035 -1.333631 -6.069924 2.313920 -1.917103 -0.726647 -2.383361 -1.306558 0.268802 -12.974648 -12.903467 -5.923728 5.679697 -17.414551 15.780267 1.949000 -8.649300 8.113400 -3.992887 -2.210028 -0.053520 -89.538018 3.000128 -2.447813 19.027373 -22.432132 -3.644140 -1.087492 -1.243147 -5.021419 29.816957 10.776549 7.100100 -7.125000 0.000000 0.000000 3.509600 43.830800 -0.101400 1.658553 1.661836 0.095745 87.689951 -9.714783 1.680996 -20.808631 29.441487 -5.486788 0.345061 -0.555317 4.722909 -16.258924 29.228988 -8.430100 7.125000 0.000000 0.000000 8.269700 0.517600 8.432100 
9.261304 17.907354 -13.054745 2.773852 -6.716535 4.852334 -5.608448 2.193050 4.128070 -8.951004 -8.095047 -0.209847 -0.915982 0.351173 1.068160 -2.696025 14.195180 -3.285258 0.211500 -2.960800 -8.169800 1.904488 -1.972993 1.484299 14.595602 14.259686 -0.992811 -0.805040 -4.265273 13.282610 1.385564 -13.535741 -11.734074 -0.415300 -4.136500 11.461100 -0.235728 -1.339908 -6.084200 2.280161 -1.928588 -0.766000 -2.398626 -1.312739 0.255514 -12.985573 -12.783945 -6.106658 5.771443 -17.239712 15.916268 1.985200 -8.553900 8.187300 -3.988425 -2.206623 -0.046220 -89.418714 2.979289 -2.989435 18.988498 -22.405649 -3.604539 -1.036223 -1.443813 -3.444985 28.005606 14.770313 8.821900 -7.125000 0.000000 0.000000 1.351300 48.335400 0.111200 1.651019 1.669292 0.097547 87.824221 -9.812003 1.896257 -21.232443 29.965858 -5.716039 0.357448 -0.537409 4.459459 -16.628985 28.824071 -8.520100 7.125000 0.000000 0.000000 8.007400 0.156200 8.108700 
